PathFileType	4	(X/Y/Z)	Patient4_TMGait_0pt2_01_left_24.trc.trc
DataRate	CameraRate	NumFrames	NumMarkers	Units	OrigDataRate	OrigDataStartFrame	OrigNumFrames
44.871794871795	44.871794871795	5	33	mm	44.871794871795	18	       141
Frame#	Time	Sacral			L.Shoulder			Chest			R.Shoulder			Neck			R.ASIS			L.ASIS			R.Thigh.Superior			R.Thigh.Lateral			R.Thigh.Inferior			R.Patella			L.Thigh.Superior			L.Thigh.Lateral			L.Thigh.Inferior			L.Patella			L.Shank.Superior			L.Shank.Lateral			L.Shank.Inferior			R.Shank.Superior			R.Shank.Lateral			R.Shank.Inferior			R.Heel			R.Midfoot.Superior			R.Midfoot.Lateral			R.Toe			L.Heel			L.Midfoot.Lateral			L.Midfoot.Superior			L.Toe			L.Elbow			L.Wrist			R.Elbow			R.Wrist			
		X1	Y1	Z1	X2	Y2	Z2	X3	Y3	Z3	X4	Y4	Z4	X5	Y5	Z5	X6	Y6	Z6	X7	Y7	Z7	X8	Y8	Z8	X9	Y9	Z9	X10	Y10	Z10	X11	Y11	Z11	X12	Y12	Z12	X13	Y13	Z13	X14	Y14	Z14	X15	Y15	Z15	X16	Y16	Z16	X17	Y17	Z17	X18	Y18	Z18	X19	Y19	Z19	X20	Y20	Z20	X21	Y21	Z21	X22	Y22	Z22	X23	Y23	Z23	X24	Y24	Z24	X25	Y25	Z25	X26	Y26	Z26	X27	Y27	Z27	X28	Y28	Z28	X29	Y29	Z29	X30	Y30	Z30	X31	Y31	Z31	X32	Y32	Z32	X33	Y33	Z33	

18	55.328857142857	861.251615403907	1010.633606378153	614.595979222268	980.565971311554	1429.347994728307	375.233667093178	1131.569600519202	1357.830971873126	490.573456439833	1120.537517574621	1437.474633573947	680.070364472192	1016.405807766580	1491.643424471285	527.478426981510	1110.989819308388	933.201475255533	652.401335742327	1015.040695060125	962.874304798155	395.617918849735	1123.142587816172	728.409108532968	609.304381582452	1050.973975797322	618.938133870757	682.363927174288	1101.799212431238	567.741240787790	583.516828540426	1096.621233014046	476.961060824711	587.666241987013	1094.164329753420	775.625608424868	409.057233325963	1030.585525116446	650.022349398281	336.932373979210	1136.457933304695	586.121024519661	383.610406100648	1157.109265620077	516.884663816972	373.489758796574	1129.232394203231	444.203770769034	359.769968964322	1039.203625643485	330.470055152179	304.753292940543	1112.575975188545	214.078879731860	345.102326267084	1055.136136306013	391.923687322491	597.956192130383	980.789411776830	293.454184470267	665.137346184004	998.467105137434	199.097105858836	592.697303805386	843.714182713002	43.909503099634	571.898732377207	1017.243519854416	95.759217958422	598.057536553260	931.109106111633	37.101977419311	641.759749108294	1138.635951798516	42.132764869044	618.192954743543	1002.490624073136	45.639155182032	376.845872432827	1071.785053387922	46.538102417249	292.760864447063	1153.910974470962	113.458437337903	313.164442410093	1280.839703047655	69.680802866159	276.094588807626	812.700960179502	1109.869762158640	341.415470710271	762.366142617396	860.687247837186	404.978918627058	1312.627758898013	1146.264603177022	767.953746607475	1531.155321445358	1130.513933790823	631.521361507158	
19	55.351142857143	859.728610862472	1011.150894980394	612.843105758924	979.661236576279	1429.064808382007	372.876629850709	1130.913842763546	1356.994039753049	487.703617742876	1120.996472607174	1437.212923113680	676.883509144822	1016.102002569701	1491.545513274440	524.987660508885	1109.163976705683	932.932774196057	650.639450184617	1013.248459305948	962.565670391223	393.780434823089	1120.044203860007	727.944856028975	608.318194477323	1047.210012970205	619.056289321862	681.666075082822	1097.835162368092	567.334150681571	583.105008544873	1092.105644928698	476.741461901182	587.480416467815	1090.236432633771	773.524300900001	406.736634020620	1024.370183874369	648.477053509542	335.605113572719	1130.004507997425	584.111200594015	381.809623122624	1149.832546714655	516.183596980067	373.012110239829	1124.839465018500	443.877610207975	358.820720663275	1039.363414661856	327.173725678250	302.348464947236	1116.126526606807	213.178172088592	343.524024688949	1050.653153494161	391.847188088364	597.758644975768	976.306214640175	293.495269647439	665.083620761843	993.947388519301	199.046587969471	592.675343444530	839.193851515668	43.862591091034	571.920838761813	1012.712935919559	95.727012243012	598.107551453308	926.585722259757	37.071567283634	641.798461287264	1134.120712854298	42.117852834375	618.194772766507	1010.510377505995	42.422130441124	373.396702394569	1081.349757723842	44.114647756307	290.561512238286	1161.654982134031	112.827972884499	312.222158767100	1290.189648749096	71.358601806445	277.848385709113	810.511743344871	1110.119426112877	341.770732838681	759.350051667420	861.640459914516	407.846918965957	1320.710181905969	1151.392424227277	759.527900144328	1536.640457394906	1146.929608420501	618.321748091944	
20	55.373428571429	858.288912464935	1011.208099080072	610.649296758410	979.007867225229	1428.301760206885	370.005835794594	1130.342052327550	1355.814193787610	484.620689759518	1121.156660196922	1436.585080537621	673.460140254671	1015.817796920862	1491.099586266977	522.030848790052	1107.476797158533	932.447529141490	648.780214356967	1011.842000335818	961.761055894783	391.753919051142	1117.564943431205	727.378685392324	607.091654392187	1044.233247471498	618.917162429024	680.603844229393	1094.802992750196	566.779405324543	582.326677399519	1088.624036251503	476.225310412011	586.902444577717	1086.937030221627	771.083720506929	404.238784789136	1018.758715687002	646.537260000804	334.325316492808	1124.286671928265	581.831592491493	379.982341890347	1143.018666251281	514.905246971495	372.497331251347	1120.466212460918	443.010758860175	357.883234499051	1038.633962468107	324.153504984592	300.532437092747	1117.967137335712	212.204170345189	342.429766964792	1046.960417161521	391.490625188677	597.191459306029	972.432264354433	293.478255092168	664.773967971275	989.776581025804	198.858421277058	592.492598243111	834.703347097338	43.856007174906	571.939103472056	1008.207297212990	95.683017621383	598.112144788593	922.084849467926	37.049983601227	641.816912171397	1129.630188920903	42.059429754057	618.199986316779	1015.759276594886	40.224209711971	370.953938579531	1087.826329006948	42.319626226963	289.149851876086	1166.791231583587	112.085329764398	311.838487791114	1296.361432063718	72.033264239951	279.718109540394	809.104561394954	1109.578347911867	341.120388568853	757.325437243785	861.662104311224	409.288091623505	1327.522555318909	1155.677309461790	750.969397487629	1540.759102786311	1161.078577743088	605.799496926877	
21	55.395714285714	856.989477472307	1010.944326417381	608.038863450327	978.561914510947	1427.208285904960	366.644274197322	1129.854290288896	1354.450249249795	481.298022514681	1121.058564700750	1435.739761657630	669.790320302418	1015.536474560999	1490.429021554859	518.616529954826	1105.985115440085	931.843801359925	646.769807715547	1010.807654619729	960.620442702813	389.516219511894	1115.639002121259	726.748588471510	605.593184495926	1041.925891225267	618.600813725425	679.191306321056	1092.531379771469	566.114693719938	581.193523447681	1085.973508910453	475.485682940259	585.961538472123	1084.288187474778	768.480642625843	401.587060205514	1013.819773613205	644.372818303464	333.067616599084	1119.325856719959	579.426812365508	378.144156443651	1136.770751438357	513.217886077997	371.899474513744	1116.208749068975	441.720723856458	356.931292100505	1037.098254929339	321.392536415896	299.225191632142	1118.265870048130	211.092058006804	341.743457693653	1043.901338880227	390.931839019702	596.294242259710	969.045605527322	293.442239887948	664.238401285942	985.887361641697	198.578576696875	592.171374806059	830.239421839124	43.891286926364	571.956085147250	1003.727295925994	95.631678459613	598.078511508487	917.606317696541	37.036218266778	641.816583679593	1125.161500678159	41.964687390042	618.209188144725	1018.403765867353	38.805065991480	369.405575360364	1091.413558196929	40.935253507843	288.410882598303	1169.530111269842	111.109646512663	311.919620030753	1299.673106740605	71.640787165364	281.610923217559	808.432380085510	1108.410338009921	339.436469237778	756.260198696941	860.898845830003	409.203455831133	1333.020857727083	1159.164227581089	742.452357329866	1543.657508481758	1172.996069982206	594.076118565314	
22	55.418000000000	855.873553252706	1010.509182153122	605.033161330516	978.284103061195	1425.946317983967	362.830368694419	1129.452398084652	1353.060241622709	477.717322838159	1120.755994740230	1434.827945915529	665.870221077522	1015.249137173654	1489.662631621000	514.767617950454	1104.724993987236	931.216166571611	644.551575939663	1010.118687379217	959.318591361189	387.039656169954	1114.158540730442	726.093031215026	603.798751471776	1040.124080736624	618.196820127374	677.454903926521	1090.797548431252	565.384927334429	579.732273324255	1083.898191363406	474.611001066795	584.703222764175	1082.286104554371	765.904197402738	398.807001298139	1009.627430138169	642.175041383465	331.768976176904	1115.137946969256	577.053809792341	376.296330142011	1131.197808520014	511.310835275097	371.163164476796	1112.183754161535	440.157746837826	355.925693575960	1034.918897584531	318.907699285208	298.289362712841	1117.269432404052	209.840005128937	341.352461440324	1041.282007272734	390.262201849721	595.122656719044	965.993438089748	293.430811262942	663.515270933558	982.195434508394	198.259920755562	591.738829535386	825.797312166225	43.971816818569	571.974275307537	999.272632222595	95.577779573482	598.013588499322	913.148675974444	37.031411306445	641.799001634556	1120.709821068677	41.842275165949	618.222834653747	1018.743615215684	37.970026435781	368.582277366689	1092.448984043630	39.808446183383	288.185494076149	1170.182287835452	109.863625534052	312.331948670086	1300.540097041427	70.248249971377	283.422434824211	808.435179922590	1106.802912210962	336.721462882072	756.112357422356	859.523353560256	407.536374193118	1337.228684058878	1161.937803747968	734.150231061070	1545.499923439001	1182.784314016810	583.250592676773	
